<?xml version="1.0"?>
<svg xmlns="http://www.w3.org/2000/svg" viewBox="0 0 50 50">
    <path d="M 27 2.5625 L 16.75 14 L 23 14 L 23 18 L 12 18 L 6 18 L 5 18 L 5 19 L 5 21 L 3 21 L 2 21 L 2 22 L 2 43 L 2 46 L 2 47 L 3 47 L 6 47 L 44 47 L 45 47 L 45 46 L 45 44 L 48 44 L 49 44 L 49 43 L 49 19 L 49 18 L 48 18 L 31 18 L 31 14 L 37.25 14 L 27 2.5625 z M 12.5625 20 L 41.4375 20 C 42.4335 20 42.78125 20.55175 43.28125 21.71875 C 43.48425 22.19275 43.671 22.63975 44 22.96875 C 44.378 23.34675 44.94825 23.55725 45.53125 23.78125 C 46.33825 24.09025 47 24.385 47 24.75 L 47 37.25 C 47 37.391034 46.98928 37.416319 46.875 37.53125 C 46.81786 37.588715 46.712129 37.649253 46.59375 37.71875 C 46.579152 37.727689 46.577767 37.741108 46.5625 37.75 C 46.450914 37.813636 46.329954 37.873199 46.1875 37.9375 C 45.873814 38.079091 45.528273 38.224659 45.15625 38.375 C 45.000452 38.437934 44.830462 38.491573 44.6875 38.5625 C 44.65243 38.57846 44.628929 38.607373 44.59375 38.625 C 44.561232 38.642275 44.531539 38.669432 44.5 38.6875 C 44.336067 38.778059 44.159818 38.871432 44 39.03125 L 44 39.0625 C 43.924313 39.140008 43.84415 39.223452 43.78125 39.3125 C 43.579419 39.583677 43.456336 39.864657 43.34375 40.125 C 43.321223 40.176984 43.303844 40.228493 43.28125 40.28125 C 43.1565 40.573 43.055484 40.815672 42.9375 41.03125 C 42.921091 41.061446 42.891701 41.096288 42.875 41.125 C 42.792223 41.267308 42.706254 41.391286 42.625 41.5 C 42.603065 41.525625 42.58524 41.570156 42.5625 41.59375 C 42.547772 41.610732 42.515314 41.609051 42.5 41.625 C 42.377421 41.740243 42.250737 41.845495 42.09375 41.90625 C 42.060558 41.917525 42.036468 41.928388 42 41.9375 C 41.934554 41.957867 41.854428 41.956779 41.78125 41.96875 C 41.674541 41.982811 41.572198 42 41.4375 42 L 12.5625 42 C 11.5665 42 11.21775 41.44725 10.71875 40.28125 C 10.51575 39.80725 10.33 39.36125 10 39.03125 C 9.622 38.65325 9.05175 38.44275 8.46875 38.21875 C 7.66175 37.90875 7 37.615 7 37.25 L 7 24.75 C 7 24.385 7.66175 24.09025 8.46875 23.78125 C 9.05175 23.55725 9.621 23.34675 10 22.96875 C 10.329 22.63875 10.51675 22.19175 10.71875 21.71875 C 11.21775 20.55175 11.5665 20 12.5625 20 z M 27 21 C 22.038 21 18 25.486 18 31 C 18 36.514 22.038 41 27 41 C 31.962 41 36 36.514 36 31 C 36 25.486 31.962 21 27 21 z M 4 23 L 5 23 L 5 24.75 L 5 37.25 L 5 43 L 5 44 L 6 44 L 12 44 L 12.5625 44 L 41.4375 44 L 43 44 L 43 45 L 6 45 L 4 45 L 4 43 L 4 23 z M 12.5 28 C 11.122 28 10 29.122 10 30.5 C 10 31.878 11.122 33 12.5 33 C 13.878 33 15 31.878 15 30.5 C 15 29.122 13.878 28 12.5 28 z M 41.5 28 C 40.122 28 39 29.122 39 30.5 C 39 31.878 40.122 33 41.5 33 C 42.878 33 44 31.878 44 30.5 C 44 29.122 42.878 28 41.5 28 z"/>
</svg>
